<?xml version="1.0" encoding="utf-8"?>
<!-- Generator: Adobe Illustrator 27.5.0, SVG Export Plug-In . SVG Version: 6.00 Build 0)  -->
<svg version="1.1" xmlns="http://www.w3.org/2000/svg" xmlns:xlink="http://www.w3.org/1999/xlink" x="0px" y="0px"
	 viewBox="0 0 500 500" style="enable-background:new 0 0 500 500;" xml:space="preserve">
<g id="BACKGROUND">
	<rect x="0.205" style="fill:#FFFFFF;" width="500" height="500"/>
</g>
<g id="OBJECTS">
	<g>
		<path style="fill:none;stroke:#1D1D1B;stroke-width:2;stroke-linecap:round;stroke-linejoin:round;stroke-miterlimit:10;" d="
			M241.238,154.049c-6.79-4.059-18.909-9.127-26.753-10.157c-7.844-1.03-16.34,0.707-22.174,6.051
			c-6.181,5.661-8.816,14.677-15.689,19.476c-6.316,4.41-15.596,3.952-21.447-1.058c-0.46,6.094,0.56,12.45,3.843,17.605
			c4.656,7.309,13.574,11.366,22.236,11.102c8.662-0.264,16.931-4.491,23.047-10.63c3.051-3.062,5.636-6.599,8.976-9.342
			c3.341-2.743,10.522-8.587,19.049-0.806"/>
		<path style="fill:none;stroke:#1D1D1B;stroke-width:2;stroke-linecap:round;stroke-linejoin:round;stroke-miterlimit:10;" d="
			M232.327,176.29c2.137-7,4.299-14.06,7.859-20.454c3.56-6.394,8.675-12.157,15.335-15.192c1.676-0.764,3.898-1.25,5.161,0.09
			c0.45,0.477,0.687,1.113,0.894,1.735c2.526,7.621,2.044,15.983,0.033,23.755c-2.012,7.773-5.483,15.077-8.934,22.326"/>
		<path style="fill:none;stroke:#1D1D1B;stroke-width:2;stroke-linecap:round;stroke-linejoin:round;stroke-miterlimit:10;" d="
			M206.28,143.516c-9.503-12.742-17.68-26.472-24.355-40.898c-2.617-5.657-5.071-11.526-9.201-16.194
			c1.663,25.453,5.104,48.009,12.491,72.423"/>
		<path style="fill:none;stroke:#1D1D1B;stroke-width:2;stroke-linecap:round;stroke-linejoin:round;stroke-miterlimit:10;" d="
			M256.273,145.6c-4.784,6.278-6.518,14.291-8.124,22.019c-1.039,4.999-2.079,10.182-0.963,15.165"/>
		<path style="fill:none;stroke:#1D1D1B;stroke-width:2;stroke-linecap:round;stroke-linejoin:round;stroke-miterlimit:10;" d="
			M261.2,169.392c6.296-0.697,11.469,3.168,14.955,8.457c3.486,5.289,4.679,11.769,5.022,18.094
			c0.343,6.325-0.084,12.684,0.52,18.99c0.568,5.931,2.931,12.748,8.66,14.387c3.855,1.103,7.937-0.592,11.391-2.628
			c-0.54,3.325-1.1,6.71-2.616,9.717c-1.517,3.008-4.17,5.634-7.481,6.256c3.979,0.693,6.27,4.933,7.224,8.857
			c0.954,3.924,1.258,8.214,3.713,11.421c4.05,5.291,13.601,4.582,16.825-1.25c0.142,8.589-6.854,16.48-15.27,18.199
			c-8.417,1.719-17.487-2.313-22.608-9.21c2.221,11.239-3.003,23.583-12.617,29.814c1.358-4.878-0.486-10.047-2.705-14.599
			c-0.991-2.033-2.099-4.074-3.794-5.572c-5.64-4.987-14.451-1.93-21.866-3.237c-10.005-1.764-16.951-12.363-16.477-22.512
			c0.475-10.148,7.124-19.288,15.632-24.841"/>
		<path style="fill:none;stroke:#1D1D1B;stroke-width:2;stroke-linecap:round;stroke-linejoin:round;stroke-miterlimit:10;" d="
			M253.273,186.549c-7.261,1.636-13.735,6.486-17.345,12.995c-1.247,2.248-2.16,4.666-2.925,7.12
			c-2.76,8.858-3.351,19.298,2.278,26.675"/>
		<path style="fill:none;stroke:#1D1D1B;stroke-width:2;stroke-linecap:round;stroke-linejoin:round;stroke-miterlimit:10;" d="
			M247.774,168.741c-5.348,0.879-9.823,5.607-10.406,10.995"/>
		<path style="fill:none;stroke:#1D1D1B;stroke-width:2;stroke-linecap:round;stroke-linejoin:round;stroke-miterlimit:10;" d="
			M245.746,147.043c-10.944-16.806-31.835-26.556-51.745-24.15"/>
		<path style="fill:none;stroke:#1D1D1B;stroke-width:2;stroke-linecap:round;stroke-linejoin:round;stroke-miterlimit:10;" d="
			M177.983,129.049c-5.463,2.022-10.117,6.145-12.783,11.324c-2.298,4.464-3.163,9.639-6.022,13.766
			c-3.376,4.873-9.488,7.705-15.387,7.13c-5.9-0.575-11.35-4.533-13.722-9.966c-1.096,5.661-2.195,11.459-1.308,17.157
			c1.784,11.461,12.485,20.867,24.081,21.167c-4.572,4.512-11.253,6.79-17.628,6.012c6.619,5.467,17.099,5.542,23.795,0.17"/>
		<path style="fill:none;stroke:#1D1D1B;stroke-width:2;stroke-linecap:round;stroke-linejoin:round;stroke-miterlimit:10;" d="
			M161.92,189.834c-2.536,6.646-5.199,13.316-9.176,19.214s-9.412,11.038-16.098,13.469c-4.798,1.745-10.602,2.397-13.461,6.626
			c-1.546,2.287-1.853,5.186-1.823,7.947c0.067,6.232,1.692,12.559,5.338,17.614c3.97,5.503,10.107,9.184,16.604,11.142
			c6.497,1.958,13.373,2.313,20.156,2.152c20.343-0.484,42.814-8.818,60.975-17.998"/>
		<path style="fill:none;stroke:#1D1D1B;stroke-width:2;stroke-linecap:round;stroke-linejoin:round;stroke-miterlimit:10;" d="
			M171.205,231.069c-0.842,2.305-1.121,4.813-0.808,7.247c0.307,2.384,1.21,4.737,2.834,6.509c1.624,1.772,4.018,2.903,6.415,2.723"
			/>
		<path style="fill:none;stroke:#1D1D1B;stroke-width:2;stroke-linecap:round;stroke-linejoin:round;stroke-miterlimit:10;" d="
			M142.136,235.862c0.316,2.628,1.564,5.134,3.47,6.97"/>
		<path style="fill:none;stroke:#1D1D1B;stroke-width:2;stroke-linecap:round;stroke-linejoin:round;stroke-miterlimit:10;" d="
			M173.053,244.753c-3.651,9.596-10.745,17.84-19.69,22.88"/>
		<path style="fill:none;stroke:#1D1D1B;stroke-width:2;stroke-linecap:round;stroke-linejoin:round;stroke-miterlimit:10;" d="
			M177.049,267.58c0.949,3.25,1.897,6.5,2.846,9.751"/>
		<path style="fill:none;stroke:#1D1D1B;stroke-width:2;stroke-linecap:round;stroke-linejoin:round;stroke-miterlimit:10;" d="
			M182.815,275.441c-7.626,3.875-13.876,10.394-17.428,18.175c-3.122,6.84-4.811,15.049-2.313,25.074"/>
		<path style="fill:none;stroke:#1D1D1B;stroke-width:2;stroke-linecap:round;stroke-linejoin:round;stroke-miterlimit:10;" d="
			M221.457,303.208c-14.422,2.889-28.771,6.144-43.028,9.758c-5.908,1.498-11.898,3.099-17.093,6.288
			c-3.897,2.392-7.216,5.601-10.5,8.783c-4.625,4.48-9.25,8.96-13.875,13.44c-3.643,3.529-7.348,7.14-9.699,11.635
			c-0.604,1.156-1.122,2.397-1.161,3.701c-0.046,1.545,0.582,3.025,1.266,4.411c8.823,17.869,27.832,28.069,46.089,36.06
			c1.372,0.6,2.999,1.187,4.299,0.444c0.659-0.376,1.1-1.034,1.507-1.674c6.298-9.925,9.955-21.326,16.11-31.34
			c1.178-1.916,2.465-3.8,4.16-5.277c3.689-3.216,8.781-4.113,13.516-5.35c9.006-2.353,17.575-6.367,25.147-11.782"/>
		<path style="fill:none;stroke:#1D1D1B;stroke-width:2;stroke-linecap:round;stroke-linejoin:round;stroke-miterlimit:10;" d="
			M125.458,357.573c1.138,2.739,4.789,3.659,7.611,2.748c2.822-0.911,4.992-3.135,7.04-5.28c-2.179,2.899-4.46,6.65-2.85,9.9
			c1.871,3.778,7.36,3.608,11.305,2.118c3.286-1.241,6.375-3.001,9.117-5.196c-2.514,1.846-4.575,4.303-5.956,7.1
			c-0.569,1.152-1.033,2.447-0.761,3.704c0.39,1.809,2.198,2.985,3.995,3.427c3.503,0.862,7.257-0.357,10.208-2.431
			c2.951-2.075,5.243-4.935,7.493-7.754c-2.172,1.363-2.082,4.917-0.19,6.65c1.891,1.733,4.871,1.81,7.237,0.819
			c2.365-0.991,4.238-2.864,5.961-4.764c2.38-2.625,4.602-5.394,6.65-8.285"/>
		<path style="fill:none;stroke:#1D1D1B;stroke-width:2;stroke-linecap:round;stroke-linejoin:round;stroke-miterlimit:10;" d="
			M284.084,315.456c-2.738,9.476-2.701,19.854,0.828,29.065c3.53,9.211,10.678,17.126,19.791,20.9
			c5.988,2.48,12.57,3.148,19.051,3.277c9.966,0.199,20.074-0.845,29.396-4.376c9.321-3.531,17.837-9.704,23.026-18.215"/>
		<path style="fill:none;stroke:#1D1D1B;stroke-width:2;stroke-linecap:round;stroke-linejoin:round;stroke-miterlimit:10;" d="
			M353.283,309.094c4.547-11.519,17.564-18.795,29.866-17.376c3.22,0.371,6.469,1.313,8.988,3.351
			c2.245,1.816,3.759,4.369,5.095,6.929c2.982,5.71,5.329,11.75,6.985,17.974c2.378,8.935,3.323,18.19,5.405,27.198
			c3.226,13.96,9.206,27.278,17.496,38.965c0.54,0.762,1.115,1.591,1.09,2.525c-0.025,0.972-0.694,1.796-1.356,2.508
			c-6.468,6.961-15.322,11.147-24.073,14.849c-8.028,3.396-16.169,6.525-24.405,9.38c-8.271-13.731-12.562-44.58-9.717-60.355"/>
		<path style="fill:none;stroke:#1D1D1B;stroke-width:2;stroke-linecap:round;stroke-linejoin:round;stroke-miterlimit:10;" d="
			M371.244,396.507c0.062,1.455,0.204,2.962,0.933,4.222c0.728,1.261,2.198,2.204,3.618,1.884c0.773-0.174,1.422-0.684,2.019-1.204
			c3.851-3.354,6.755-7.784,8.296-12.653c-0.822,3.423-0.732,7.925,2.466,9.397c2.772,1.276,5.96-0.731,7.955-3.04
			c3.16-3.655,5.102-8.346,5.451-13.165c-0.242,2.462,0.308,4.996,1.549,7.137c0.587,1.013,1.414,1.998,2.554,2.263
			c1.919,0.445,3.609-1.282,4.733-2.9"/>
		<path style="fill:none;stroke:#1D1D1B;stroke-width:2;stroke-linecap:round;stroke-linejoin:round;stroke-miterlimit:10;" d="
			M341.855,367.214c2.302,7.734,4.605,15.468,6.907,23.202c0.224,0.753,0.449,1.556,0.236,2.312c-0.21,0.741-0.802,1.3-1.357,1.835
			c-10.868,10.469-16.011,26.549-13.236,41.381c-17.267,2.053-34.595,3.585-51.954,4.592c-2.43-19.434,5.323-39.857,20.036-52.783
			c0.679-0.596,1.413-1.246,1.59-2.132c0.131-0.654-0.069-1.325-0.267-1.962c-1.307-4.211-3.614-9.423-4.921-13.635"/>
		<path style="fill:none;stroke:#1D1D1B;stroke-width:2;stroke-linecap:round;stroke-linejoin:round;stroke-miterlimit:10;" d="
			M282.554,425.55c-0.248,1.09-0.498,2.213-0.316,3.316c0.182,1.103,0.905,2.194,1.99,2.463c0.872,0.217,1.779-0.124,2.596-0.498
			c5.014-2.296,9.305-6.141,12.137-10.873c-1.217,1.521-2.469,3.112-2.899,5.012c-0.43,1.899,0.228,4.197,1.993,5.021
			c1.731,0.808,3.767-0.04,5.382-1.06c4.041-2.554,7.332-6.281,9.366-10.608c-1.445,2.379-1.465,6.16,1.08,7.288
			c1.649,0.731,3.564-0.023,5.116-0.943c2.886-1.711,5.409-4.03,7.356-6.762"/>
		<path style="fill:none;stroke:#1D1D1B;stroke-width:2;stroke-linecap:round;stroke-linejoin:round;stroke-miterlimit:10;" d="
			M305.356,365.353c-18.543,8.801-38.906,8.694-59.428,8.317c-17.072-0.313-35.129-0.98-49.485-10.225"/>
		<path style="fill:none;stroke:#1D1D1B;stroke-width:2;stroke-linecap:round;stroke-linejoin:round;stroke-miterlimit:10;" d="
			M166.563,395.371c-4.29,16.716-8.111,33.551-11.458,50.481c21.846,2.667,43.909,3.556,65.899,2.654
			c-0.434-7.593-0.868-15.187-1.302-22.78c-1.025-17.937-1.932-36.609,5.051-53.163"/>
		<path style="fill:none;stroke:#1D1D1B;stroke-width:2;stroke-linecap:round;stroke-linejoin:round;stroke-miterlimit:10;" d="
			M160.397,422.188c-1.488,1.952-1.633,7.827-0.349,9.918c1.284,2.092,3.913,3.264,6.327,2.82c2.01-0.369,3.699-1.709,5.161-3.137
			c2.3-2.245,4.276-4.822,5.847-7.625c-1.3,2.245-2.632,4.586-2.841,7.172c-0.209,2.586,1.055,5.487,3.518,6.3
			c1.421,0.469,2.981,0.182,4.401-0.289c6.061-2.011,10.529-7.063,14.692-11.906c-0.929,1.759-1.753,3.657-1.727,5.647
			c0.027,1.99,1.109,4.084,2.988,4.739c0.983,0.343,2.072,0.264,3.077-0.01c2.967-0.809,5.226-3.159,7.276-5.451"/>
		<path style="fill:none;stroke:#1D1D1B;stroke-width:2;stroke-linecap:round;stroke-linejoin:round;stroke-miterlimit:10;" d="
			M299.711,255.066c13.664-2.351,28.209,0.917,39.554,8.887c11.345,7.97,19.352,20.545,21.773,34.197"/>
		<path style="fill:none;stroke:#1D1D1B;stroke-width:2;stroke-linecap:round;stroke-linejoin:round;stroke-miterlimit:10;" d="
			M322.595,256.193c-8.794-15.652-13.815-33.884-9.8-51.383c2.642-11.515,8.767-23.02,19.308-28.354
			c14.139-7.154,33.128-1.878,45.454-11.835c5.419-4.378,8.525-11.1,9.897-17.931c0.707,5.46,1.415,10.998,0.661,16.451
			c-0.754,5.454-3.16,10.907-7.594,14.171c5.486-0.827,9.872-5.04,12.986-9.631c3.115-4.592,5.365-9.759,8.818-14.102
			c6.165-7.753,16.14-12.318,26.037-11.918c-5.605,4.383-9.206,11.233-9.64,18.336c-0.343,5.622,1.197,11.202,1.204,16.835
			c0.015,12.816-8.796,25.171-20.918,29.332c5.141,2.551,11.299,2.478,16.789,0.805c5.49-1.673,10.41-4.824,15.005-8.262
			c-2.805,15.792-15.641,29.332-31.261,32.975c-7.339,1.712-14.995,1.386-22.449,2.488c-10.248,1.515-39.285-9.361-45.025,25.556"/>
		<path style="fill:none;stroke:#1D1D1B;stroke-width:2;stroke-linecap:round;stroke-linejoin:round;stroke-miterlimit:10;" d="
			M426.58,141.958c-5.999,1.9-10.518,6.982-13.462,12.543c-2.944,5.561-4.59,11.699-6.808,17.587
			c-2.204,5.852-4.988,11.486-8.297,16.792c-2.431,3.897-5.203,7.679-8.881,10.43c-4.734,3.541-10.605,5.122-16.296,6.725
			c-11.76,3.312-23.84,7.271-32.738,15.644c-9.58,9.014-14.394,22.832-12.488,35.848"/>
		<path style="fill:none;stroke:#1D1D1B;stroke-width:2;stroke-linecap:round;stroke-linejoin:round;stroke-miterlimit:10;" d="
			M429.369,200.075c-3.579,8.469-12.081,14.025-20.934,16.506c-8.853,2.481-18.191,2.365-27.383,2.545
			c-9.193,0.18-18.614,0.727-27.046,4.392c-5.847,2.542-19.957,5.416-23.631,35.423"/>
		<path style="fill:none;stroke:#1D1D1B;stroke-width:2;stroke-linecap:round;stroke-linejoin:round;stroke-miterlimit:10;" d="
			M386.682,149.914c-0.587,9.828-6.675,18.574-14.009,25.143c-7.333,6.569-15.989,11.461-23.869,17.364
			c-13.718,10.277-25.592,24.916-26.819,42.013c-0.549,7.644,1.062,15.268,2.899,22.709"/>
		<path style="fill:none;stroke:#1D1D1B;stroke-width:2;stroke-linecap:round;stroke-linejoin:round;stroke-miterlimit:10;" d="
			M258.67,175.713c3.809,1.327,6.139,5.182,7.474,8.989c1.967,5.609,2.459,11.611,2.976,17.533
			c0.516,5.922,1.092,11.926,3.211,17.48c2.119,5.554,6.003,10.695,11.476,13.016c5.473,2.321,12.595,1.162,16.14-3.61"/>
		<path style="fill:none;stroke:#1D1D1B;stroke-width:2;stroke-linecap:round;stroke-linejoin:round;stroke-miterlimit:10;" d="
			M255.802,182.745c3.35,2.814,3.375,7.484,3.932,11.823c1.905,14.849,0.877,30.72,8.121,43.821
			c3.324,6.012,8.192,11.005,13.113,15.8c5.223,5.09,10.75,10.16,17.539,12.826c6.789,2.665,15.18,2.449,20.664-2.359"/>
		<path style="fill:none;stroke:#1D1D1B;stroke-width:2;stroke-linecap:round;stroke-linejoin:round;stroke-miterlimit:10;" d="
			M252.477,188.52c3.775,16.615-3.974,34.288,0.049,50.845c2.55,10.492,9.523,19.251,14.616,28.772
			c5.094,9.521,8.249,21.482,2.913,30.869"/>
		<path style="fill:none;stroke:#1D1D1B;stroke-width:2;stroke-linecap:round;stroke-linejoin:round;stroke-miterlimit:10;" d="
			M249.013,187.924c-6.577,7.886-8.253,19.547-4.161,28.965c0.943,2.17,2.184,4.585,1.27,6.768c-0.381,0.911-1.1,1.637-1.567,2.507
			c-0.96,1.788-0.697,4.156,0.631,5.69c-5.787,3.178-7.662,10.681-7.357,17.277c0.56,12.075,8.313,24.324,19.472,28.971"/>
		<path style="fill:none;stroke:#1D1D1B;stroke-width:2;stroke-linecap:round;stroke-linejoin:round;stroke-miterlimit:10;" d="
			M235.331,161.241c-10.096-4.993-22.407-5.272-32.719-0.741c-4.299,1.889-8.211,4.54-12.147,7.101
			c-5.361,3.488-11.019,6.913-17.352,7.808c-6.333,0.895-13.54-1.372-16.643-6.965"/>
		<g>
			<path style="fill:none;stroke:#1D1D1B;stroke-width:2;stroke-linecap:round;stroke-linejoin:round;stroke-miterlimit:10;" d="
				M192.905,209.593c0,0-7.322-4.602-12.894-2.212c-5.573,2.39-7.286,10.866-7.286,10.866s7.322,4.602,12.894,2.212
				C191.192,218.07,192.905,209.593,192.905,209.593z"/>
			<path style="fill:#1D1D1B;" d="M186.369,215.765c0.071-2.723-2.079-4.989-4.803-5.06c-2.723-0.071-4.989,2.079-5.06,4.803
				c-0.071,2.723,2.079,4.989,4.803,5.06C184.032,220.639,186.297,218.488,186.369,215.765z"/>
			<path style="fill:#FFFFFF;stroke:#1D1D1B;stroke-width:2;stroke-linecap:round;stroke-linejoin:round;stroke-miterlimit:10;" d="
				M188.483,211.646c0.04-1.547-1.181-2.834-2.728-2.874c-1.547-0.04-2.834,1.181-2.874,2.728c-0.04,1.547,1.181,2.834,2.728,2.874
				C187.156,214.415,188.443,213.193,188.483,211.646z"/>
		</g>
		<path style="fill:none;stroke:#1D1D1B;stroke-width:2;stroke-linecap:round;stroke-linejoin:round;stroke-miterlimit:10;" d="
			M180.286,98.607c-1.955,1.654-3.91,3.308-5.866,4.962"/>
		<path style="fill:none;stroke:#1D1D1B;stroke-width:2;stroke-linecap:round;stroke-linejoin:round;stroke-miterlimit:10;" d="
			M180.225,137.254c4.376-4.131,9.566-7.396,15.183-9.553"/>
		<path style="fill:none;stroke:#1D1D1B;stroke-width:2;stroke-linecap:round;stroke-linejoin:round;stroke-miterlimit:10;" d="
			M201.158,136.613c-2.186-1.386-5.506-0.36-6.528,2.019c-0.21,0.489-0.339,1.026-0.674,1.44c-1.207,1.494-3.689,0.256-5.503,0.886
			c-1.456,0.505-2.175,2.086-2.963,3.411c-0.901,1.514-2.081,2.861-3.464,3.953"/>
		<path style="fill:none;stroke:#1D1D1B;stroke-width:2;stroke-linecap:round;stroke-linejoin:round;stroke-miterlimit:10;" d="
			M185.361,110.034c-1.46-0.206-3.006,0.626-3.639,1.957c-0.226,0.475-0.35,1.01-0.689,1.411c-0.638,0.756-1.766,0.776-2.745,0.917
			c-0.98,0.14-2.128,0.714-2.102,1.703"/>
		<path style="fill:none;stroke:#1D1D1B;stroke-width:2;stroke-linecap:round;stroke-linejoin:round;stroke-miterlimit:10;" d="
			M234.973,167.936c-6.614-4.994-16.163-4.74-23.473-0.835c-6.023,3.217-10.201,9.039-15.753,13.014
			c-8.033,5.752-18.963,7.213-28.224,3.771c-6.115-2.273-11.926-7.548-11.717-14.068"/>
		<path style="fill:none;stroke:#1D1D1B;stroke-width:2;stroke-linecap:round;stroke-linejoin:round;stroke-miterlimit:10;" d="
			M180.652,142.679c-3.618-0.001-6.951,2.072-9.485,4.654c-2.534,2.582-4.458,5.689-6.732,8.502
			c-3.093,3.825-6.933,7.161-11.5,8.987c-4.567,1.826-9.919,2.008-14.321-0.185c-4.403-2.193-7.597-6.962-7.275-11.87"/>
		<path style="fill:none;stroke:#1D1D1B;stroke-width:2;stroke-linecap:round;stroke-linejoin:round;stroke-miterlimit:10;" d="
			M243.359,150.465c0.242-1.609-1.212-2.921-2.536-3.867c-7.699-5.494-16.102-9.999-24.938-13.371
			c-2.756-1.051-5.603-2.003-8.55-2.109c-2.838-0.103-5.639,0.581-8.396,1.261"/>
		<path style="fill:none;stroke:#1D1D1B;stroke-width:2;stroke-linecap:round;stroke-linejoin:round;stroke-miterlimit:10;" d="
			M224.435,260.887c-15.237,2.932-30.026,8.177-43.706,15.499"/>
		<path style="fill:#FFFFFF;stroke:#1D1D1B;stroke-width:2;stroke-linecap:round;stroke-linejoin:round;stroke-miterlimit:10;" d="
			M167.833,274.61c-3.102,0.051-6.042,2.303-6.898,5.285c-0.604,2.103-0.237,4.348,0.133,6.504c0.688,4.008,1.409,8.11,3.438,11.634
			c0.364,0.632,0.84,1.293,1.554,1.444c0.694,0.147,1.378-0.237,1.984-0.606c2.228-1.356,4.457-2.712,6.685-4.069
			c3.868-2.354,7.853-4.817,10.426-8.544c1.648-2.388,2.526-5.885,0.573-8.031c-1.389-1.527-3.783-1.77-5.747-1.134
			c-3.04,0.983-3,2.284-5.682,1.17C171.794,277.223,171.313,274.553,167.833,274.61z"/>
		<path style="fill:none;stroke:#1D1D1B;stroke-width:2;stroke-linecap:round;stroke-linejoin:round;stroke-miterlimit:10;" d="
			M186.142,265.441c0.485,2.072,0.971,4.143,1.456,6.215"/>
		<path style="fill:none;stroke:#1D1D1B;stroke-width:2;stroke-linecap:round;stroke-linejoin:round;stroke-miterlimit:10;" d="
			M196.996,261.948c0.501,1.553,1.002,3.107,1.503,4.66"/>
		<path style="fill:none;stroke:#1D1D1B;stroke-width:2;stroke-linecap:round;stroke-linejoin:round;stroke-miterlimit:10;" d="
			M208.99,258.08c0.513,1.678,1.025,3.357,1.538,5.035"/>
		<path style="fill:none;stroke:#1D1D1B;stroke-width:2;stroke-linecap:round;stroke-linejoin:round;stroke-miterlimit:10;" d="
			M217.922,254.197c0.788,2.282,1.4,4.625,1.83,7.001"/>
		<path style="fill:#FFFFFF;stroke:#1D1D1B;stroke-width:2;stroke-linecap:round;stroke-linejoin:round;stroke-miterlimit:10;" d="
			M375.894,381.948c0-3.078-2.496-5.574-5.574-5.574c-3.078,0-5.574,2.496-5.574,5.574s2.496,5.574,5.574,5.574
			C373.398,387.522,375.894,385.027,375.894,381.948z"/>
		<path style="fill:#FFFFFF;stroke:#1D1D1B;stroke-width:2;stroke-linecap:round;stroke-linejoin:round;stroke-miterlimit:10;" d="
			M390.623,370.413c-2.177-2.177-5.706-2.177-7.883,0c-2.177,2.177-2.177,5.706,0,7.883c2.177,2.177,5.706,2.177,7.883,0
			C392.8,376.12,392.8,372.59,390.623,370.413z"/>
		
			<circle style="fill:#FFFFFF;stroke:#1D1D1B;stroke-width:2;stroke-linecap:round;stroke-linejoin:round;stroke-miterlimit:10;" cx="402.06" cy="366.86" r="5.574"/>
		<path style="fill:#FFFFFF;stroke:#1D1D1B;stroke-width:2;stroke-linecap:round;stroke-linejoin:round;stroke-miterlimit:10;" d="
			M418.817,354.015c-2.177-2.177-5.706-2.177-7.883,0c-2.177,2.177-2.177,5.706,0,7.883c2.177,2.177,5.706,2.177,7.883,0
			C420.993,359.721,420.993,356.192,418.817,354.015z"/>
		<path style="fill:#FFFFFF;stroke:#1D1D1B;stroke-width:2;stroke-linecap:round;stroke-linejoin:round;stroke-miterlimit:10;" d="
			M295.77,398.734c-2.177-2.177-5.706-2.177-7.883,0c-2.177,2.177-2.177,5.706,0,7.883c2.177,2.177,5.706,2.177,7.883,0
			C297.946,404.44,297.946,400.911,295.77,398.734z"/>
		<path style="fill:#FFFFFF;stroke:#1D1D1B;stroke-width:2;stroke-linecap:round;stroke-linejoin:round;stroke-miterlimit:10;" d="
			M313.334,403.031c-2.177-2.177-5.706-2.177-7.883,0c-2.177,2.177-2.177,5.706,0,7.883c2.177,2.177,5.706,2.177,7.883,0
			C315.511,408.737,315.511,405.208,313.334,403.031z"/>
		<path style="fill:#FFFFFF;stroke:#1D1D1B;stroke-width:2;stroke-linecap:round;stroke-linejoin:round;stroke-miterlimit:10;" d="
			M183.594,409.605c-2.177-2.177-5.706-2.177-7.883,0c-2.177,2.177-2.177,5.706,0,7.883c2.177,2.177,5.706,2.177,7.883,0
			C185.771,415.311,185.771,411.782,183.594,409.605z"/>
		<path style="fill:#FFFFFF;stroke:#1D1D1B;stroke-width:2;stroke-linecap:round;stroke-linejoin:round;stroke-miterlimit:10;" d="
			M199.222,420.867c3.022-0.589,4.993-3.516,4.404-6.538c-0.589-3.022-3.517-4.993-6.538-4.404
			c-3.022,0.589-4.993,3.516-4.404,6.538C193.273,419.485,196.2,421.457,199.222,420.867z"/>
		<path style="fill:#FFFFFF;stroke:#1D1D1B;stroke-width:2;stroke-linecap:round;stroke-linejoin:round;stroke-miterlimit:10;" d="
			M149.171,341.985c3.021-0.589,4.993-3.516,4.404-6.538c-0.589-3.022-3.516-4.993-6.538-4.404
			c-3.022,0.589-4.993,3.517-4.404,6.538C143.223,340.602,146.15,342.574,149.171,341.985z"/>
		<path style="fill:#FFFFFF;stroke:#1D1D1B;stroke-width:2;stroke-linecap:round;stroke-linejoin:round;stroke-miterlimit:10;" d="
			M167.846,352.377c1.708-2.561,1.017-6.022-1.544-7.73c-2.561-1.708-6.022-1.017-7.73,1.544c-1.708,2.561-1.017,6.022,1.544,7.73
			C162.677,355.63,166.138,354.938,167.846,352.377z"/>
		<path style="fill:#FFFFFF;stroke:#1D1D1B;stroke-width:2;stroke-linecap:round;stroke-linejoin:round;stroke-miterlimit:10;" d="
			M184.863,359.412c1.708-2.561,1.017-6.022-1.544-7.73c-2.561-1.708-6.022-1.017-7.73,1.544c-1.708,2.561-1.017,6.022,1.544,7.73
			C179.693,362.664,183.154,361.973,184.863,359.412z"/>
		<path style="fill:#FFFFFF;stroke:#1D1D1B;stroke-width:2;stroke-linecap:round;stroke-linejoin:round;stroke-miterlimit:10;" d="
			M199.536,364.521c1.708-2.561,1.017-6.022-1.544-7.73c-2.561-1.708-6.022-1.017-7.73,1.544c-1.708,2.561-1.017,6.022,1.544,7.73
			C194.367,367.773,197.827,367.082,199.536,364.521z"/>
		<path style="fill:#FFFFFF;stroke:#1D1D1B;stroke-width:2;stroke-linecap:round;stroke-linejoin:round;stroke-miterlimit:10;" d="
			M215.632,418.018c3.022-0.589,4.993-3.517,4.404-6.538c-0.589-3.022-3.517-4.993-6.538-4.404
			c-3.022,0.589-4.993,3.517-4.404,6.538C209.684,416.635,212.611,418.607,215.632,418.018z"/>
		<path style="fill:#FFFFFF;stroke:#1D1D1B;stroke-width:2;stroke-linecap:round;stroke-linejoin:round;stroke-miterlimit:10;" d="
			M329.316,401.813c-2.177-2.177-5.706-2.177-7.883,0c-2.177,2.177-2.177,5.706,0,7.883c2.177,2.177,5.706,2.177,7.883,0
			C331.493,407.519,331.493,403.99,329.316,401.813z"/>
		<path style="fill:#FFFFFF;stroke:#1D1D1B;stroke-width:2;stroke-linecap:round;stroke-linejoin:round;stroke-miterlimit:10;" d="
			M345.103,398.734c-2.177-2.177-5.706-2.177-7.883,0c-2.177,2.177-2.177,5.706,0,7.883c2.177,2.177,5.706,2.177,7.883,0
			C347.28,404.44,347.28,400.911,345.103,398.734z"/>
		<path style="fill:#FFFFFF;stroke:#1D1D1B;stroke-width:2;stroke-linecap:round;stroke-linejoin:round;stroke-miterlimit:10;" d="
			M165.901,406.763c-2.177-2.177-5.706-2.177-7.883,0c-2.177,2.177-2.177,5.706,0,7.883c2.177,2.177,5.706,2.177,7.883,0
			C168.078,412.47,168.078,408.94,165.901,406.763z"/>
		<path style="fill:none;stroke:#1D1D1B;stroke-width:2;stroke-linecap:round;stroke-linejoin:round;stroke-miterlimit:10;" d="
			M409.81,361.428c-0.936,1.146-2.127,2.081-3.462,2.718"/>
		<path style="fill:none;stroke:#1D1D1B;stroke-width:2;stroke-linecap:round;stroke-linejoin:round;stroke-miterlimit:10;" d="
			M396.325,369.643c-1.312,0.735-2.625,1.47-3.937,2.204"/>
		<path style="fill:none;stroke:#1D1D1B;stroke-width:2;stroke-linecap:round;stroke-linejoin:round;stroke-miterlimit:10;" d="
			M381.581,376.549c-1.838,1.095-3.788,2.001-5.81,2.7"/>
		<path style="fill:none;stroke:#1D1D1B;stroke-width:2;stroke-linecap:round;stroke-linejoin:round;stroke-miterlimit:10;" d="
			M334.768,403.77c-0.826,0.141-1.652,0.282-2.478,0.423c-0.205,0.035-0.452,0.057-0.588-0.101
			c-0.136-0.158,0.092-0.478,0.237-0.328"/>
		<path style="fill:none;stroke:#1D1D1B;stroke-width:2;stroke-linecap:round;stroke-linejoin:round;stroke-miterlimit:10;" d="
			M319.59,406.136c-2.511,0.628-2.105,0.921-4.692,0.869"/>
		<path style="fill:none;stroke:#1D1D1B;stroke-width:2;stroke-linecap:round;stroke-linejoin:round;stroke-miterlimit:10;" d="
			M297.563,404.439c1.349,1.24,3.213,1.901,5.042,1.788"/>
		<path style="fill:none;stroke:#1D1D1B;stroke-width:2;stroke-linecap:round;stroke-linejoin:round;stroke-miterlimit:10;" d="
			M203.9,414.76c1.598-0.043,3.188-0.399,4.652-1.042"/>
		<path style="fill:none;stroke:#1D1D1B;stroke-width:2;stroke-linecap:round;stroke-linejoin:round;stroke-miterlimit:10;" d="
			M184.99,414.759c2.023,0.989,4.274,1.508,6.526,1.504"/>
		<path style="fill:none;stroke:#1D1D1B;stroke-width:2;stroke-linecap:round;stroke-linejoin:round;stroke-miterlimit:10;" d="
			M168.687,410.98c1.695,0.784,3.532,1.26,5.394,1.398"/>
		<path style="fill:none;stroke:#1D1D1B;stroke-width:2;stroke-linecap:round;stroke-linejoin:round;stroke-miterlimit:10;" d="
			M186.487,358.729c0.764,0.173,1.529,0.346,2.293,0.519"/>
		<path style="fill:none;stroke:#1D1D1B;stroke-width:2;stroke-linecap:round;stroke-linejoin:round;stroke-miterlimit:10;" d="
			M168.372,351.646c1.9,1.217,3.799,2.435,5.699,3.652"/>
		<path style="fill:none;stroke:#1D1D1B;stroke-width:2;stroke-linecap:round;stroke-linejoin:round;stroke-miterlimit:10;" d="
			M152.82,340.926c1.318,1.981,3.068,3.672,5.093,4.921"/>
		<path style="fill:none;stroke:#1D1D1B;stroke-width:2;stroke-linecap:round;stroke-linejoin:round;stroke-miterlimit:10;" d="
			M191.25,117.474c7.185-0.492,10.405-0.465,17.585,0.082c-4.604-3.732-9.208-7.464-13.813-11.196
			c9.459-3.066,18.814-6.455,28.043-10.157c-8.669-0.869-17.446-0.652-26.061,0.647c6.856-6.69,12.426-14.693,16.319-23.445
			c-8.557,4.593-17.114,9.187-25.671,13.78c-1.661-9.827-3.322-19.654-4.983-29.481c-3.127,8.389-6.813,16.57-11.024,24.471
			c-5.79-4.909-11.874-9.472-18.208-13.656c2.363,8.573,4.725,17.145,7.088,25.718c-11.6,3.647-22.638,9.079-32.604,16.046
			c11.581,0.35,23.162,0.701,34.743,1.051c-5.662,5.4-10.789,11.359-15.285,17.763c7.59-2.717,15.18-5.433,22.77-8.15
			c-1.834,1.767-3.033,4.179-3.334,6.708c3.274-2.047,6.43-4.282,9.448-6.69"/>
		<path style="fill:none;stroke:#1D1D1B;stroke-width:2;stroke-linecap:round;stroke-linejoin:round;stroke-miterlimit:10;" d="
			M174.42,282.913c0-0.937-0.759-1.696-1.696-1.696s-1.696,0.759-1.696,1.696c0,0.937,0.759,1.696,1.696,1.696
			S174.42,283.849,174.42,282.913z"/>
		<path style="fill:none;stroke:#1D1D1B;stroke-width:2;stroke-linecap:round;stroke-linejoin:round;stroke-miterlimit:10;" d="
			M178.339,271.613c-2.602,1.278-6.774,8.643-5.615,11.3"/>
		<path style="fill:none;stroke:#1D1D1B;stroke-width:2;stroke-linecap:round;stroke-linejoin:round;stroke-miterlimit:10;" d="
			M144.788,219.4c4.649,1.775,8.441,5.26,11.722,9.003c9.436,10.764,15.592,24.367,17.45,38.56"/>
		<path style="fill:none;stroke:#1D1D1B;stroke-width:2;stroke-linecap:round;stroke-linejoin:round;stroke-miterlimit:10;" d="
			M260.702,280.336c-6.554,2.799-12.118,7.857-15.527,14.115c-1.182,2.17-2.128,4.563-2.043,7.032
			c0.084,2.469,1.397,5.016,3.672,5.981c2.182,0.926,4.806,0.285,6.955,1.286c2.201,1.025,3.347,3.56,3.53,5.982
			c0.182,2.422-0.406,4.825-0.74,7.23c-0.662,4.772-0.268,9.834,2.054,14.056c2.321,4.221,6.813,7.425,11.63,7.337
			c4.548-0.082,9.788-2.75,13.189,0.272"/>
		<path style="fill:none;stroke:#1D1D1B;stroke-width:2;stroke-linecap:round;stroke-linejoin:round;stroke-miterlimit:10;" d="
			M288.216,350.664c4.859,4.886,12.74,4.837,19.516,3.584c4.914-0.908,10.128-2.531,13.05-6.585
			c3.385-4.698,2.653-11.059,2.368-16.843c-0.317-6.415,0.105-12.866,1.253-19.185c0.558-3.068,1.311-6.167,2.959-8.815
			c1.648-2.648,4.331-4.809,7.432-5.139c3.204-0.341,6.375,1.265,9.581,0.943c3.578-0.36,6.554-3.12,8.168-6.334
			c1.614-3.213,2.104-6.856,2.571-10.421"/>
		<path style="fill:none;stroke:#1D1D1B;stroke-width:2;stroke-linecap:round;stroke-linejoin:round;stroke-miterlimit:10;" d="
			M398.851,305.62c-3.603-1.95-8.142-0.625-11.614,1.55c-2.233,1.399-4.296,3.18-5.584,5.479c-1.287,2.299-1.714,5.174-0.695,7.605
			c1.428,3.407,5.316,5.356,6.548,8.839c1.777,5.023-2.598,11.346,0.634,15.581c2.326,3.049,6.938,2.691,10.716,2.033
			c3.161-0.551,6.322-1.103,9.483-1.654"/>
		<path style="fill:none;stroke:#1D1D1B;stroke-width:2;stroke-linecap:round;stroke-linejoin:round;stroke-miterlimit:10;" d="
			M205.462,368.088c-1.737,0.33-2.549,2.303-3.039,4.003c-0.712,2.472-1.287,5.4,0.331,7.4c1.447,1.789,4.132,2.11,5.715,3.78
			c2.275,2.402,1.347,6.365,2.605,9.425c1.246,3.033,4.473,4.763,7.626,5.663"/>
	</g>
	<path style="fill:none;stroke:#1D1D1B;stroke-width:2;stroke-linecap:round;stroke-linejoin:round;stroke-miterlimit:10;" d="
		M374.863,449.152c-5.392-6.494-8.534-14.822-8.776-23.259c-0.022-0.752,0.015-1.594,0.556-2.117c0.953-0.92,2.52-0.137,3.552,0.693
		c6.104,4.901,11.249,10.993,15.059,17.832c1.099-8.175,3.329-17.393,10.59-21.307c0.439-0.237,0.942-0.455,1.423-0.322
		c0.753,0.209,1.021,1.12,1.156,1.89c1.16,6.652,1.545,13.438,1.147,20.179c3.728-8.592,11.323-15.418,20.264-18.211
		c0.666-0.208,1.489-0.359,1.979,0.138c0.561,0.57,0.249,1.52-0.094,2.243c-2.42,5.093-4.841,10.186-7.261,15.279
		c2.662-3.474,6.631-5.922,10.931-6.74c2.099-0.399,5.01,0.198,5.137,2.331c0.041,0.678-0.245,1.33-0.54,1.942
		c-1.659,3.444-3.805,6.653-6.353,9.502"/>
	<g>
		<path style="fill:none;stroke:#1D1D1B;stroke-width:2;stroke-linecap:round;stroke-linejoin:round;stroke-miterlimit:10;" d="
			M66.508,109.367c4.535,14.481,0.562,31.297-9.976,42.217c-4.985,5.166-11.245,9.037-15.862,14.536
			c-4.617,5.499-7.328,13.636-3.745,19.858c3.047,5.291,9.887,7.929,11.902,13.693c2.271,6.494-2.652,13.046-4.627,19.636
			c-2.923,9.759,0.992,20.632,7.903,28.116c6.911,7.485,19.828,14.626,29.434,18.018c21.403-12.521,25.82-44.387,13.016-65.622
			c-2.028-3.364-4.496-6.508-5.9-10.177c-3.914-10.232,1.246-21.502,1.689-32.449c0.399-9.859-3.287-19.82-10.007-27.045
			C74.438,123.807,71.129,116.022,66.508,109.367z"/>
		<path style="fill:none;stroke:#1D1D1B;stroke-width:2;stroke-linecap:round;stroke-linejoin:round;stroke-miterlimit:10;" d="
			M76.046,319.418c-1.041-6.906-4.529-13.796-10.61-17.233c-2.403-1.358-5.227-2.218-6.958-4.368
			c-2.436-3.026-1.826-7.379-2.461-11.211c-1.441-8.701-9.406-14.673-17.112-18.965s-16.255-8.279-20.735-15.876
			c3.269,10.705,1.034,22.192,0.669,33.379c-0.365,11.187,2.005,23.825,11.286,30.082c1.924,1.297,4.163,2.345,5.367,4.329
			c1.016,1.673,1.11,3.72,1.439,5.649c0.689,4.044,2.548,7.887,5.319,10.911c5.525,6.032,21.303,12.546,29.644,10.244
			C80.233,344.057,77.2,327.079,76.046,319.418z"/>
		<path style="fill:none;stroke:#1D1D1B;stroke-width:2;stroke-linecap:round;stroke-linejoin:round;stroke-miterlimit:10;" d="
			M18.918,254.646c10.104,28.254,49.268,83.454,74.033,100.396"/>
		<path style="fill:none;stroke:#1D1D1B;stroke-width:2;stroke-linecap:round;stroke-linejoin:round;stroke-miterlimit:10;" d="
			M68.282,112.062c5.428,50.68,8.588,139.016,18.948,189.992c2.454,12.074,4.637,24.237,5.428,36.533
			c1.324,20.579-1.693,43.831-4.276,64.29"/>
		<path style="fill:none;stroke:#1D1D1B;stroke-width:2;stroke-linecap:round;stroke-linejoin:round;stroke-miterlimit:10;" d="
			M137.023,221.537c0.374-5.034-0.558-10.159-2.68-14.739c-4.492,9.97-18.182,12.945-23.132,22.695
			c-5.371,10.581,1.639,25.037-5.417,34.577c-1.499,2.027-3.518,3.611-5.138,5.544c-7.278,8.683-4.912,21.604-2.149,32.592
			c6.798-1.875,13.596-3.751,20.395-5.626c3.483-0.961,6.997-1.934,10.19-3.626c9.031-4.787,14.461-15.583,12.919-25.688"/>
		<path style="fill:none;stroke:#1D1D1B;stroke-width:2;stroke-linecap:round;stroke-linejoin:round;stroke-miterlimit:10;" d="
			M126.065,254.646c-3.032,24.63-32.115,39.862-35.005,64.509"/>
		<path style="fill:none;stroke:#1D1D1B;stroke-width:2;stroke-linecap:round;stroke-linejoin:round;stroke-miterlimit:10;" d="
			M89.279,396.51c2.572-9.788,5.303-22.216,11.66-30.091c3.955-4.899,9.203-8.773,12.392-14.202
			c3.626-6.174,4.183-13.648,6.789-20.317c4.67-11.946,14.099-13.484,25.122-29.474"/>
		<path style="fill:none;stroke:#1D1D1B;stroke-width:2;stroke-linecap:round;stroke-linejoin:round;stroke-miterlimit:10;" d="
			M124.534,356.651c-6.622,3.403-17.243,6.806-23.865,10.209c-2.547-8.363-4.83-18.308,0.626-25.139
			c1.232-1.543,2.796-2.809,3.926-4.427c3.225-4.617,2.27-10.915,4.05-16.258c1.935-5.81,7.408-10.277,13.487-11.01
			c2.68-0.323,5.408,0.023,8.086-0.315c5.399-0.682,10.031-4.038,14.399-7.284c-1.929,12.523-3.069,25.399-6.48,37.602"/>
		<path style="fill:none;stroke:#1D1D1B;stroke-width:2;stroke-linecap:round;stroke-linejoin:round;stroke-miterlimit:10;" d="
			M64.969,427.57c-7.129-10.353-10.97-22.938-10.803-35.51c0.017-1.25,0.623-2.466,1.688-3.122c1.565-0.964,2.878-0.058,3.99,0.829
			c8.017,6.391,14.358,14.865,18.229,24.359c-2.242-9.403-1.323-19.531,2.577-28.376c2.626,5.205,4.877,10.599,6.731,16.127
			c0.383,1.141,1.931,1.193,2.438,0.102c2.781-5.983,9.146-10.309,15.794-10.257c-1.06,8.845-2.767,17.612-5.102,26.209
			c6.67-9.862,14.25-20.415,25.902-23.363c0.687-0.174,1.441-0.102,2.037,0.281c1.288,0.828,0.944,2.159,0.569,3.279
			c-2.505,7.494-5.658,14.771-9.413,21.723c4.151-3.518,8.604-6.928,14.382-7.314c2.26-0.151,4.53,0.42,6.457,1.61
			c0.835,0.516,1.696,1.212,1.98,2.175c0.405,1.373-0.461,2.767-1.285,3.937c-1.862,2.645-3.724,5.29-5.585,7.935"/>
		<path style="fill:none;stroke:#1D1D1B;stroke-width:2;stroke-linecap:round;stroke-linejoin:round;stroke-miterlimit:10;" d="
			M19.927,277.33c5.695,4.028,10.356,7.323,16.051,11.351c-0.485-7.295-0.385-14.628,0.3-21.907"/>
		<path style="fill:none;stroke:#1D1D1B;stroke-width:2;stroke-linecap:round;stroke-linejoin:round;stroke-miterlimit:10;" d="
			M19.755,295.453c8.487,1.745,16.891,3.889,25.177,6.422c-0.04-9.625,1.834-17.881,3.967-27.266"/>
		<path style="fill:none;stroke:#1D1D1B;stroke-width:2;stroke-linecap:round;stroke-linejoin:round;stroke-miterlimit:10;" d="
			M35.001,317.583c7.828-0.197,15.677,0.457,23.365,1.946c0.217-7.198,1.234-12.86,2.009-20.019"/>
		<path style="fill:none;stroke:#1D1D1B;stroke-width:2;stroke-linecap:round;stroke-linejoin:round;stroke-miterlimit:10;" d="
			M70.749,306.749c0.298,8.953,0.596,17.907,0.894,26.861c0.011,0.325,0.016,0.672-0.16,0.945c-0.246,0.382-0.751,0.484-1.201,0.552
			c-8.78,1.327-17.644,2.658-26.503,2.06"/>
		<path style="fill:none;stroke:#1D1D1B;stroke-width:2;stroke-linecap:round;stroke-linejoin:round;stroke-miterlimit:10;" d="
			M61.778,146.024c3.538,3.56,6.931,7.264,10.167,11.101c4.651-6.199,9.301-12.397,13.952-18.596"/>
		<path style="fill:none;stroke:#1D1D1B;stroke-width:2;stroke-linecap:round;stroke-linejoin:round;stroke-miterlimit:10;" d="
			M46.693,160.905c10.244,8.183,19.648,17.417,28.015,27.511c4.335-4.852,8.554-9.806,12.654-14.857"/>
		<path style="fill:none;stroke:#1D1D1B;stroke-width:2;stroke-linecap:round;stroke-linejoin:round;stroke-miterlimit:10;" d="
			M49.762,201.116c9.367,6.259,18.466,12.92,27.262,19.958c5.318-7.679,10.637-15.357,15.956-23.036"/>
		<path style="fill:none;stroke:#1D1D1B;stroke-width:2;stroke-linecap:round;stroke-linejoin:round;stroke-miterlimit:10;" d="
			M43.653,225.308c11.803,10.306,23.88,20.298,36.213,29.963c7.121-10.709,14.02-21.565,20.69-32.56"/>
		<path style="fill:none;stroke:#1D1D1B;stroke-width:2;stroke-linecap:round;stroke-linejoin:round;stroke-miterlimit:10;" d="
			M122.197,218.742c0.055,3.103,0.191,6.204,0.406,9.299"/>
		<path style="fill:none;stroke:#1D1D1B;stroke-width:2;stroke-linecap:round;stroke-linejoin:round;stroke-miterlimit:10;" d="
			M110.231,232.892c3.366,11.713,6.733,23.426,10.099,35.139c0.106,0.368,0.238,0.771,0.568,0.963
			c0.368,0.214,0.832,0.083,1.236-0.052c5.121-1.721,10.243-3.442,15.364-5.163"/>
		<path style="fill:none;stroke:#1D1D1B;stroke-width:2;stroke-linecap:round;stroke-linejoin:round;stroke-miterlimit:10;" d="
			M104.886,265.202c0.655,6.334,1.771,12.62,3.339,18.792c0.109,0.43,0.23,0.878,0.527,1.207c0.441,0.49,1.154,0.602,1.809,0.679
			c8.477,0.999,17.061,1.092,25.558,0.279"/>
		<path style="fill:none;stroke:#1D1D1B;stroke-width:2;stroke-linecap:round;stroke-linejoin:round;stroke-miterlimit:10;" d="
			M127.276,311.103c-0.039,3.406-0.078,6.813-0.117,10.219c5.244-1.255,10.59-2.086,15.968-2.48"/>
		<path style="fill:none;stroke:#1D1D1B;stroke-width:2;stroke-linecap:round;stroke-linejoin:round;stroke-miterlimit:10;" d="
			M114.93,313.965c0.859,7.442,2.368,14.808,4.504,21.988c6.97-1.714,14.009-3.152,21.093-4.31"/>
		<path style="fill:none;stroke:#1D1D1B;stroke-width:2;stroke-linecap:round;stroke-linejoin:round;stroke-miterlimit:10;" d="
			M106.736,335.388c1.293,6.242,2.885,12.421,4.771,18.511c5.245-0.938,10.555-1.512,15.88-1.719"/>
	</g>
	<path style="fill:none;stroke:#1D1D1B;stroke-width:2;stroke-linecap:round;stroke-linejoin:round;stroke-miterlimit:10;" d="
		M83.939,25.167c-7.417,6.075-11.422,15.586-11.935,25.16c-0.279-5.145-7.916-6.986-11.964-3.797s-5.039,8.883-5.102,14.036
		c-1.997-5.991-9.981-8.324-15.814-5.904c-5.833,2.419-9.616,8.209-11.746,14.155c12.641-3.206,25.825-3.396,38.865-3.567
		c33.508-0.441,67.015-0.882,100.523-1.324c1.191-4.606,2.222-9.384,1.535-14.091c-0.687-4.708-3.426-9.383-7.849-11.136
		c-6.844-2.712-14.259,2.326-19.167,7.813c0.951-3.461,1.34-7.215,0.143-10.599c-1.197-3.384-4.28-6.27-7.867-6.385
		c-3.587-0.115-7.133,3.274-6.468,6.801C125.08,25.649,100.782,11.372,83.939,25.167z"/>
	<path style="fill:none;stroke:#1D1D1B;stroke-width:2;stroke-linecap:round;stroke-linejoin:round;stroke-miterlimit:10;" d="
		M403.302,110.724c27.113,0.445,54.226,0.89,81.34,1.335c1.695,0.028,3.693-0.097,4.612-1.521c0.544-0.843,0.535-1.917,0.497-2.92
		c-0.357-9.365-1.754-19.028-6.763-26.949c-8.943-14.141-29.356-19.328-44.2-11.608c2.051-14.888-4.223-39.213-19.184-37.779
		c-7.165,0.687-9.411,11.182-10.59,18.282c1.579-9.504-9.013-19.518-17.429-21.28c-12.286-2.572-25.598-2.633-36.654,3.972
		c-12.247,7.317-20.111,21.439-19.881,35.703c-1.186-6.522-8.69-10.607-15.217-9.448s-11.744,6.438-14.479,12.477
		c-2.734,6.039-3.364,12.797-3.709,19.417c-1.101-4.31-7.072-4.849-11.359-3.661c-10.897,3.021-20.16,11.424-24.227,21.975
		c-0.182,0.473-0.357,0.986-0.237,1.479c0.301,1.229,1.987,1.336,3.243,1.179c20.206-2.521,40.647-2.191,61.007-1.857
		c4.749,0.078,9.498,0.156,14.246,0.234"/>
	<path style="fill:none;stroke:#1D1D1B;stroke-width:2;stroke-linecap:round;stroke-linejoin:round;stroke-miterlimit:10;" d="
		M367.486,110.136c5.57,0.091,11.139,0.183,16.709,0.274"/>
	<path style="fill:none;stroke:#1D1D1B;stroke-width:2;stroke-linecap:round;stroke-linejoin:round;stroke-miterlimit:10;" d="
		M135.315,372.813c-47.034,4.243-87.301,10.697-135.109,20.674"/>
	<path style="fill:none;stroke:#1D1D1B;stroke-width:2;stroke-linecap:round;stroke-linejoin:round;stroke-miterlimit:10;" d="
		M304.265,369.158"/>
	<path style="fill:none;stroke:#1D1D1B;stroke-width:2;stroke-linecap:round;stroke-linejoin:round;stroke-miterlimit:10;" d="
		M368.059,374.355c-10.872-1.182-12.693-2.21-23.471-3.083"/>
	<path style="fill:none;stroke:#1D1D1B;stroke-width:2;stroke-linecap:round;stroke-linejoin:round;stroke-miterlimit:10;" d="
		M500.413,395.703c-12.651-2.757-12.751-2.975-24.031-5.204"/>
	<g>
		<path style="fill:none;stroke:#1D1D1B;stroke-width:2;stroke-linecap:round;stroke-linejoin:round;stroke-miterlimit:10;" d="
			M38.128,498.754c0.595-14.429-2.012-28.982-7.58-42.307"/>
		<path style="fill:none;stroke:#1D1D1B;stroke-width:2;stroke-linecap:round;stroke-linejoin:round;stroke-miterlimit:10;" d="
			M51.609,500.817c5.044-15.565,17.305-27.538,29.135-38.841"/>
		<path style="fill:none;stroke:#1D1D1B;stroke-width:2;stroke-linecap:round;stroke-linejoin:round;stroke-miterlimit:10;" d="
			M13.271,455.235c-4.938-3.113-8.304-8.231-10.627-13.587c3.17,1.124,6.556,1.634,9.917,1.491c0.42-4.06,1.146-8.089,2.168-12.04
			c2.752,1.523,5.504,3.047,8.256,4.57c1.612-3.821,3.224-7.642,4.836-11.463c1.705,2.24,3.227,4.619,4.545,7.106
			c1.857-2.622,3.714-5.245,5.572-7.867c3.788,5.208,5.143,12.112,3.606,18.366C38.565,453.921,24.689,462.433,13.271,455.235z"/>
		<path style="fill:#FFFFFF;stroke:#1D1D1B;stroke-width:2;stroke-linecap:round;stroke-linejoin:round;stroke-miterlimit:10;" d="
			M37.231,457.878c0-3.371-2.733-6.104-6.104-6.104s-6.104,2.733-6.104,6.104c0,3.371,2.733,6.104,6.104,6.104
			S37.231,461.249,37.231,457.878z"/>
		<path style="fill:none;stroke:#1D1D1B;stroke-width:2;stroke-linecap:round;stroke-linejoin:round;stroke-miterlimit:10;" d="
			M38.321,423.65c0.134,3.042-0.345,6.11-1.402,8.966c-2.391,6.463-7.993,12.315-8.169,19.203c-1.559-1.986-4.189-2.753-6.672-3.209
			c-3.345-0.615-6.757-0.877-10.052-1.721c-3.295-0.844-6.548-2.349-8.714-4.971"/>
		<path style="fill:none;stroke:#1D1D1B;stroke-width:2;stroke-linecap:round;stroke-linejoin:round;stroke-miterlimit:10;" d="
			M70.961,448.872c-0.217-5.834,2.108-11.501,5.219-16.441c0.861,3.251,2.352,6.334,4.366,9.028
			c3.589-1.944,7.324-3.619,11.163-5.005c0.295,3.132,0.591,6.263,0.887,9.394c4.064-0.826,8.128-1.652,12.192-2.478
			c-0.886,2.672-1.992,5.271-3.301,7.763c3.213,0.053,6.426,0.106,9.639,0.159c-2.161,6.066-7.096,11.082-13.127,13.342
			C86.321,469.011,71.463,462.36,70.961,448.872z"/>
		<path style="fill:#FFFFFF;stroke:#1D1D1B;stroke-width:2;stroke-linecap:round;stroke-linejoin:round;stroke-miterlimit:10;" d="
			M82.302,470.143c2.783-1.902,3.496-5.701,1.594-8.483c-1.903-2.783-5.701-3.497-8.484-1.594c-2.783,1.902-3.496,5.701-1.594,8.484
			C75.721,471.332,79.519,472.045,82.302,470.143z"/>
		<path style="fill:none;stroke:#1D1D1B;stroke-width:2;stroke-linecap:round;stroke-linejoin:round;stroke-miterlimit:10;" d="
			M111.173,451.725c-2.436,1.828-5.239,3.163-8.193,3.903c-6.685,1.674-14.677,0.352-20.463,4.094
			c0.759-2.408-0.092-5.012-1.116-7.319c-1.38-3.108-3.09-6.074-4.253-9.27c-1.163-3.196-1.756-6.732-0.814-10"/>
		<path style="fill:none;stroke:#1D1D1B;stroke-width:2;stroke-linecap:round;stroke-linejoin:round;stroke-miterlimit:10;" d="
			M37.942,497.578c-5.263-14.418-15.021-27.158-27.57-35.995c-0.299,2.444,0.719,4.837,1.738,7.079
			c2.665,5.866,5.488,11.661,8.465,17.376c-3.984-1.713-8.537-2.067-12.738-0.989c0.925,2.5,3.498,3.924,5.874,5.133
			c6.59,3.355,13.179,6.71,19.769,10.065"/>
		<path style="fill:none;stroke:#1D1D1B;stroke-width:2;stroke-linecap:round;stroke-linejoin:round;stroke-miterlimit:10;" d="
			M37.488,481.141c0.963-9.252,4.012-18.282,8.856-26.224c1.585-2.599,3.455-5.17,6.13-6.623
			c-1.303,7.029-3.337,13.922-6.058,20.532c2.918-3.261,6.346-6.066,10.12-8.282c1-0.587,2.505-1.028,3.129-0.051
			c0.436,0.682,0.071,1.575-0.306,2.291c-5.31,10.09-12.265,19.312-20.506,27.191"/>
		<path style="fill:none;stroke:#1D1D1B;stroke-width:2;stroke-linecap:round;stroke-linejoin:round;stroke-miterlimit:10;" d="
			M58.605,487.531c10.588-7.696,22.996-12.87,35.914-14.976c-4.681,6.343-12.237,9.771-19.456,12.936
			c7.813,0.306,15.978,0.709,22.747,4.623c0.84,0.486,1.769,1.363,1.391,2.256c-0.206,0.488-0.735,0.743-1.224,0.945
			c-13.82,5.695-29.582,1.899-44.417,3.725"/>
		<path style="fill:none;stroke:#1D1D1B;stroke-width:2;stroke-linecap:round;stroke-linejoin:round;stroke-miterlimit:10;" d="
			M38.778,485.794c2.028-4.191,4.056-8.382,6.084-12.573"/>
		<path style="fill:none;stroke:#1D1D1B;stroke-width:2;stroke-linecap:round;stroke-linejoin:round;stroke-miterlimit:10;" d="
			M36.079,500.247c-4.436-4.859-8.872-9.717-13.308-14.576"/>
		<path style="fill:none;stroke:#1D1D1B;stroke-width:2;stroke-linecap:round;stroke-linejoin:round;stroke-miterlimit:10;" d="
			M54.598,493.505c5.135-1.013,10.309-1.824,15.507-2.432"/>
	</g>
	<g>
		<path style="fill:none;stroke:#1D1D1B;stroke-width:2;stroke-linecap:round;stroke-linejoin:round;stroke-miterlimit:10;" d="
			M166.491,499.328c-5.6-9.437-9.4-19.938-11.135-30.773c-0.055-0.345-0.102-0.726,0.086-1.021c0.332-0.521,1.109-0.42,1.703-0.251
			c16.335,4.631,31.763,12.439,45.168,22.858c12.492-19.66,27.564-37.678,44.71-53.444c0.768,7.657,1.536,15.315,2.304,22.972
			c0.898,8.956,1.812,17.986,4.519,26.569c19.042-6.244,38.248-12.52,58.161-14.773c2.658-0.301,5.438-0.514,7.93,0.457
			c-6.902,6.625-13.805,13.25-20.707,19.875c8.662-0.087,17.329,0.346,25.94,1.295c-2.067,2.512-4.135,5.024-6.202,7.536"/>
		<path style="fill:none;stroke:#1D1D1B;stroke-width:2;stroke-linecap:round;stroke-linejoin:round;stroke-miterlimit:10;" d="
			M246.189,437.735c-5.527,19.111-10.988,42.724-14.412,62.321"/>
		<path style="fill:none;stroke:#1D1D1B;stroke-width:2;stroke-linecap:round;stroke-linejoin:round;stroke-miterlimit:10;" d="
			M155.442,467.534c9.187,10.663,23.51,24.411,34.442,33.276"/>
		<path style="fill:none;stroke:#1D1D1B;stroke-width:2;stroke-linecap:round;stroke-linejoin:round;stroke-miterlimit:10;" d="
			M319.938,471.922c-20.514,6.641-47.885,17.373-67.012,27.329"/>
		<path style="fill:none;stroke:#1D1D1B;stroke-width:2;stroke-linecap:round;stroke-linejoin:round;stroke-miterlimit:10;" d="
			M325.171,493.093c-5.268,2.364-22.06,5.364-27.608,6.962"/>
		<path style="fill:none;stroke:#1D1D1B;stroke-width:2;stroke-linecap:round;stroke-linejoin:round;stroke-miterlimit:10;" d="
			M174.152,485.805c-0.975-1.911-1.653-3.973-2.001-6.09c-0.236-1.435-0.251-3.096,0.78-4.121c0.232-0.23,0.546-0.425,0.867-0.367
			c0.336,0.061,0.561,0.372,0.744,0.66c3.011,4.742,4.704,10.312,4.839,15.927"/>
		<path style="fill:none;stroke:#1D1D1B;stroke-width:2;stroke-linecap:round;stroke-linejoin:round;stroke-miterlimit:10;" d="
			M186.759,498.216c-1.802-3.007-1.692-6.742-1.527-10.243c0.037-0.785,0.083-1.601,0.46-2.291c0.377-0.69,1.191-1.208,1.945-0.984
			c0.876,0.26,1.215,1.299,1.4,2.193c0.896,4.316,1.295,8.734,1.186,13.14"/>
		<path style="fill:none;stroke:#1D1D1B;stroke-width:2;stroke-linecap:round;stroke-linejoin:round;stroke-miterlimit:10;" d="
			M173.589,486.264c-2.535-0.37-5.118-0.407-7.663-0.109c-0.257,0.03-0.524,0.067-0.739,0.211c-0.635,0.426-0.405,1.437,0.07,2.036
			c0.961,1.214,2.517,1.768,4.006,2.192c3.092,0.881,6.271,1.456,9.476,1.711"/>
		<path style="fill:none;stroke:#1D1D1B;stroke-width:2;stroke-linecap:round;stroke-linejoin:round;stroke-miterlimit:10;" d="
			M230.922,499.697c-2.966-2.075-6.178-3.781-9.134-5.871c-2.955-2.09-5.704-4.642-7.278-7.902
			c-0.687-1.424-1.141-3.034-0.836-4.585c0.049-0.25,0.126-0.509,0.312-0.684c0.227-0.213,0.563-0.251,0.874-0.26
			c2.355-0.066,4.64,0.94,6.521,2.36c1.88,1.42,3.414,3.24,4.93,5.043c1.969,2.341,3.938,4.683,5.906,7.025"/>
		<path style="fill:none;stroke:#1D1D1B;stroke-width:2;stroke-linecap:round;stroke-linejoin:round;stroke-miterlimit:10;" d="
			M232.631,489.616c-0.827-1.513-1.655-3.027-2.482-4.54c-1.594-2.916-3.196-5.849-4.273-8.993
			c-1.077-3.144-1.613-6.539-1.017-9.808c0.115-0.63,0.303-1.303,0.815-1.688c0.583-0.439,1.433-0.357,2.065,0.008
			c0.632,0.364,1.093,0.959,1.528,1.544c2.679,3.598,5.05,7.425,7.079,11.426"/>
		<path style="fill:none;stroke:#1D1D1B;stroke-width:2;stroke-linecap:round;stroke-linejoin:round;stroke-miterlimit:10;" d="
			M237.227,469.866c-0.488-1.873-0.976-3.746-1.463-5.618c-0.763-2.93-1.533-5.929-1.276-8.945c0.119-1.403,0.525-2.891,1.623-3.773
			c1.688,2.747,3.048,5.696,4.044,8.763c1.565-2.017,3.71-3.329,6.113-4.194c0.852,1.138,0.461,2.755-0.086,4.067
			C244.567,464.034,240.619,467.403,237.227,469.866z"/>
		<path style="fill:none;stroke:#1D1D1B;stroke-width:2;stroke-linecap:round;stroke-linejoin:round;stroke-miterlimit:10;" d="
			M236.826,477.857c2.861-3.12,6.624-5.405,10.712-6.504c0.595,0.913,0.603,2.113,0.268,3.15c-0.335,1.037-0.973,1.945-1.621,2.822
			c-3.348,4.533-7.175,8.712-11.399,12.443"/>
		<path style="fill:none;stroke:#1D1D1B;stroke-width:2;stroke-linecap:round;stroke-linejoin:round;stroke-miterlimit:10;" d="
			M232.378,495.332c4.496-3.25,9.471-5.837,14.715-7.649c1.18,0.398,1.604,1.965,1.183,3.137c-0.421,1.172-1.426,2.022-2.405,2.791
			c-3.194,2.507-6.613,4.795-10.407,6.243"/>
		<path style="fill:none;stroke:#1D1D1B;stroke-width:2;stroke-linecap:round;stroke-linejoin:round;stroke-miterlimit:10;" d="
			M256.91,497.443c1.153-4.338,2.431-8.898,5.636-12.041c0.694-0.681,1.848-1.281,2.556-0.615c0.478,0.45,0.424,1.213,0.315,1.861
			c-0.362,2.17-0.916,4.308-1.652,6.382"/>
		<path style="fill:none;stroke:#1D1D1B;stroke-width:2;stroke-linecap:round;stroke-linejoin:round;stroke-miterlimit:10;" d="
			M272.74,489.741c1.357-2.703,3.151-5.186,5.291-7.323c1.213-1.211,2.874-2.39,4.508-1.871c-0.493,1.832-0.986,3.664-1.479,5.496"
			/>
		<path style="fill:none;stroke:#1D1D1B;stroke-width:2;stroke-linecap:round;stroke-linejoin:round;stroke-miterlimit:10;" d="
			M289.184,482.994c1.116-1.783,2.345-3.526,3.931-4.908c1.586-1.382,3.57-2.39,5.672-2.489c-0.104,1.176-0.209,2.352-0.313,3.528
			c2.563,0.079,5.364,1.18,7.618,2.403c0.352,0.191,0.746,0.486,0.7,0.884c-0.033,0.282-0.281,0.484-0.517,0.642
			c-2.75,1.841-6.26,1.982-9.569,2.062C294.46,485.17,291.429,482.94,289.184,482.994z"/>
		<path style="fill:none;stroke:#1D1D1B;stroke-width:2;stroke-linecap:round;stroke-linejoin:round;stroke-miterlimit:10;" d="
			M280.677,486.598c3.221-0.7,6.588-0.716,9.816-0.048c1.481,0.307,3.055,0.844,3.874,2.116c-0.118,0.991-1.309,1.406-2.292,1.58
			c-6.142,1.084-12.462,1.158-18.628,0.217"/>
		<path style="fill:none;stroke:#1D1D1B;stroke-width:2;stroke-linecap:round;stroke-linejoin:round;stroke-miterlimit:10;" d="
			M263.864,494.644c2.449,0.356,4.906,0.658,7.368,0.907c2.154,0.217,4.362,0.406,6.328,1.312c0.667,0.307,1.392,0.894,1.236,1.612
			c-0.101,0.466-0.545,0.768-0.971,0.983c-2.728,1.373-5.961,1.087-8.995,0.734c-3.765-0.439-7.553-0.939-11.143-2.157"/>
	</g>
	<g>
		<g>
			<g>
				<path style="fill:none;stroke:#1D1D1B;stroke-width:2;stroke-linecap:round;stroke-linejoin:round;stroke-miterlimit:10;" d="
					M411.876,357.037c2.69-17.636,9.895-33.809,19.961-44.807c2.603-2.844,6.521-5.26,8.893-2.033
					c0.999,1.359,1.384,3.391,1.55,5.342c1.287,15.13-7.676,27.724-11.283,42.076c9.098-13.657,20.863-23.687,33.624-28.666
					c1.5-0.585,3.237-1.048,4.502,0.238c2.223,2.261,0.963,7.208-0.514,10.477c-7.665,16.973-16.186,33.164-25.476,48.41
					c11.105-10.708,24.164-17.284,37.535-18.901c1.587-0.192,3.536-0.049,4.282,1.951c0.738,1.98-0.244,4.333-1.226,6.086
					c-6.208,11.085-14.085,20.274-22.945,26.768"/>
				<path style="fill:none;stroke:#1D1D1B;stroke-width:2;stroke-linecap:round;stroke-linejoin:round;stroke-miterlimit:10;" d="
					M399.846,231.545c7.656,38.778,11.942,78.221,12.792,117.739"/>
				<path style="fill:none;stroke:#1D1D1B;stroke-width:2;stroke-linecap:round;stroke-linejoin:round;stroke-miterlimit:10;" d="
					M376.445,164.995c-5.042-21.745-18.924-58.632-27.607-79.196"/>
				<path style="fill:none;stroke:#1D1D1B;stroke-width:2;stroke-linecap:round;stroke-linejoin:round;stroke-miterlimit:10;" d="
					M446.336,231.671c0.749-0.204,1.503-0.341,2.262-0.403c10.708-0.882,9.771,12.818,6.88,20.047
					c-3.746,9.367-12.923,15.89-20.559,21.913c-4.523,3.567-23.589,13.32-25.167,18.777c0.004-0.014,7.682-26.571,11.652-33.11
					C426.119,251.131,435.64,234.582,446.336,231.671z"/>
				<path style="fill:none;stroke:#1D1D1B;stroke-width:2;stroke-linecap:round;stroke-linejoin:round;stroke-miterlimit:10;" d="
					M392.306,101.241c0.556-0.295,1.129-0.538,1.718-0.723c8.318-2.607,10.02,8.402,9.021,14.64
					c-1.295,8.082-7.395,14.882-12.364,21.01c-2.944,3.63-16.295,14.749-16.571,19.35c0.001-0.012,1.342-22.401,3.318-28.284
					C379.775,120.249,384.36,105.452,392.306,101.241z"/>
				<path style="fill:none;stroke:#1D1D1B;stroke-width:2;stroke-linecap:round;stroke-linejoin:round;stroke-miterlimit:10;" d="
					M347.651,255.111c-0.225-0.742-0.384-1.492-0.469-2.249c-1.193-10.678,12.527-10.141,19.838-7.461
					c9.472,3.472,16.26,12.455,22.502,19.912c3.697,4.417,14.001,23.191,19.502,24.609c-0.014-0.004-26.783-6.905-33.435-10.684
					C367.692,274.753,350.873,265.718,347.651,255.111z"/>
				<path style="fill:none;stroke:#1D1D1B;stroke-width:2;stroke-linecap:round;stroke-linejoin:round;stroke-miterlimit:10;" d="
					M340.769,134.834c-3.248-0.776-6.683-1.274-9.903-0.387c-3.22,0.887-6.167,3.46-6.59,6.773
					c-0.358,2.807,1.126,5.574,3.127,7.575c3.397,3.397,8.202,5.053,12.967,5.666c4.765,0.612,9.592,0.287,14.396,0.3
					c6.322,0.016,12.433,1.346,18.674,1.671c0.461-4.246-10.892-11.534-14.115-13.62
					C353.645,139.138,347.35,136.407,340.769,134.834z"/>
				<path style="fill:none;stroke:#1D1D1B;stroke-width:2;stroke-linecap:round;stroke-linejoin:round;stroke-miterlimit:10;" d="
					M395.22,107.682c-4.251,15.49-11.063,30.275-20.076,43.571"/>
				<path style="fill:none;stroke:#1D1D1B;stroke-width:2;stroke-linecap:round;stroke-linejoin:round;stroke-miterlimit:10;" d="
					M372.315,154.651c-3.003-1.623-6.543-1.455-9.823-1.954c-3.517-0.535-6.626-2.05-9.957-3.226
					c-5.649-1.995-11.299-3.989-16.948-5.983"/>
				<path style="fill:none;stroke:#1D1D1B;stroke-width:2;stroke-linecap:round;stroke-linejoin:round;stroke-miterlimit:10;" d="
					M451.689,240.654c-8.069,8.992-16.138,17.984-24.207,26.976c-5.936,6.614-11.918,13.292-16.342,21"/>
				<path style="fill:none;stroke:#1D1D1B;stroke-width:2;stroke-linecap:round;stroke-linejoin:round;stroke-miterlimit:10;" d="
					M406.992,289.458c-4.992-5.227-11.153-9.163-17.249-13.046c-8.801-5.606-17.601-11.211-26.401-16.817"/>
				<path style="fill:none;stroke:#1D1D1B;stroke-width:2;stroke-linecap:round;stroke-linejoin:round;stroke-miterlimit:10;" d="
					M362.664,87.133c-1.927-5.1-4.766-10.219-9.532-12.866c-4.766-2.647-11.806-1.731-14.338,3.097
					c-0.94,1.793-1.168,3.868-1.244,5.891c-0.38,10.079,2.642,20.16,7.933,28.747c2.802,4.548,24.837,30.485,24.837,30.485
					s-2.688-32.799-3.459-38.281C366.043,98.393,364.742,92.632,362.664,87.133z"/>
			</g>
			<g>
				<path style="fill:none;stroke:#1D1D1B;stroke-width:2;stroke-linecap:round;stroke-linejoin:round;stroke-miterlimit:10;" d="
					M406.374,269.478c20.235-44.745,27.2-53.841,43.971-76.974"/>
				
					<path style="fill:#FFFFFF;stroke:#1D1D1B;stroke-width:2;stroke-linecap:round;stroke-linejoin:round;stroke-miterlimit:10;" d="
					M458.068,192.504c0-3.523-2.856-6.38-6.38-6.38c-3.523,0-6.38,2.856-6.38,6.38c0,3.523,2.856,6.38,6.38,6.38
					C455.212,198.884,458.068,196.027,458.068,192.504z"/>
				
					<path style="fill:#FFFFFF;stroke:#1D1D1B;stroke-width:2;stroke-linecap:round;stroke-linejoin:round;stroke-miterlimit:10;" d="
					M446.333,164.995c0-3.523-2.856-6.38-6.38-6.38c-3.523,0-6.38,2.856-6.38,6.38c0,3.523,2.856,6.38,6.38,6.38
					C443.477,171.374,446.333,168.518,446.333,164.995z"/>
				
					<path style="fill:#FFFFFF;stroke:#1D1D1B;stroke-width:2;stroke-linecap:round;stroke-linejoin:round;stroke-miterlimit:10;" d="
					M470.154,164.995c0-3.523-2.856-6.38-6.38-6.38c-3.523,0-6.38,2.856-6.38,6.38c0,3.523,2.856,6.38,6.38,6.38
					C467.298,171.374,470.154,168.518,470.154,164.995z"/>
				
					<path style="fill:#FFFFFF;stroke:#1D1D1B;stroke-width:2;stroke-linecap:round;stroke-linejoin:round;stroke-miterlimit:10;" d="
					M485.209,176.365c0-3.523-2.856-6.38-6.38-6.38c-3.523,0-6.38,2.856-6.38,6.38c0,3.523,2.856,6.38,6.38,6.38
					C482.352,182.745,485.209,179.888,485.209,176.365z"/>
				
					<path style="fill:#FFFFFF;stroke:#1D1D1B;stroke-width:2;stroke-linecap:round;stroke-linejoin:round;stroke-miterlimit:10;" d="
					M491.588,198.884c0-3.523-2.856-6.38-6.38-6.38c-3.523,0-6.38,2.856-6.38,6.38c0,3.523,2.856,6.38,6.38,6.38
					C488.732,205.263,491.588,202.407,491.588,198.884z"/>
				<path style="fill:none;stroke:#1D1D1B;stroke-width:2;stroke-linecap:round;stroke-linejoin:round;stroke-miterlimit:10;" d="
					M473.92,180.195c-5.297,2.653-10.594,5.306-15.891,7.959"/>
				<path style="fill:none;stroke:#1D1D1B;stroke-width:2;stroke-linecap:round;stroke-linejoin:round;stroke-miterlimit:10;" d="
					M460.151,170.502c-2.316,5.472-4.632,9.943-6.949,15.415"/>
				<path style="fill:none;stroke:#1D1D1B;stroke-width:2;stroke-linecap:round;stroke-linejoin:round;stroke-miterlimit:10;" d="
					M441.563,170.946c2.322,4.818,4.196,9.852,5.59,15.015"/>
				<path style="fill:none;stroke:#1D1D1B;stroke-width:2;stroke-linecap:round;stroke-linejoin:round;stroke-miterlimit:10;" d="
					M458.435,193.935c6.608,1.427,13.435,1.837,20.167,1.21"/>
				<path style="fill:none;stroke:#1D1D1B;stroke-width:2;stroke-linecap:round;stroke-linejoin:round;stroke-miterlimit:10;" d="
					M456.089,197.153c4.105,4.495,8.209,8.991,12.314,13.486"/>
				
					<path style="fill:#FFFFFF;stroke:#1D1D1B;stroke-width:2;stroke-linecap:round;stroke-linejoin:round;stroke-miterlimit:10;" d="
					M476.534,215.636c0-3.523-2.856-6.38-6.38-6.38c-3.523,0-6.38,2.856-6.38,6.38c0,3.523,2.856,6.38,6.38,6.38
					C473.678,222.016,476.534,219.16,476.534,215.636z"/>
			</g>
		</g>
		<g>
			<path style="fill:none;stroke:#1D1D1B;stroke-width:2;stroke-linecap:round;stroke-linejoin:round;stroke-miterlimit:10;" d="
				M432.188,353.472c15.133-18.641,20.904-28.65,25.203-50.403"/>
			<path style="fill:#FFFFFF;stroke:#1D1D1B;stroke-width:2;stroke-linecap:round;stroke-linejoin:round;stroke-miterlimit:10;" d="
				M462.834,300.559c-1.145-2.483-4.087-3.567-6.57-2.422c-2.483,1.145-3.567,4.087-2.422,6.569
				c1.145,2.483,4.087,3.567,6.569,2.422C462.895,305.983,463.979,303.042,462.834,300.559z"/>
			<path style="fill:#FFFFFF;stroke:#1D1D1B;stroke-width:2;stroke-linecap:round;stroke-linejoin:round;stroke-miterlimit:10;" d="
				M445.622,284.988c-1.145-2.483-4.087-3.567-6.569-2.422c-2.483,1.145-3.567,4.087-2.422,6.569
				c1.145,2.483,4.087,3.567,6.57,2.422C445.683,290.413,446.767,287.471,445.622,284.988z"/>
			<path style="fill:#FFFFFF;stroke:#1D1D1B;stroke-width:2;stroke-linecap:round;stroke-linejoin:round;stroke-miterlimit:10;" d="
				M462.409,277.245c-1.145-2.483-4.087-3.567-6.569-2.422c-2.483,1.145-3.567,4.087-2.422,6.57c1.145,2.483,4.087,3.567,6.57,2.422
				C462.47,282.669,463.554,279.728,462.409,277.245z"/>
			<path style="fill:#FFFFFF;stroke:#1D1D1B;stroke-width:2;stroke-linecap:round;stroke-linejoin:round;stroke-miterlimit:10;" d="
				M476.713,280.363c-1.145-2.483-4.087-3.567-6.57-2.422c-2.483,1.145-3.567,4.087-2.422,6.57c1.145,2.483,4.087,3.567,6.57,2.422
				C476.774,285.787,477.859,282.846,476.713,280.363z"/>
			<path style="fill:#FFFFFF;stroke:#1D1D1B;stroke-width:2;stroke-linecap:round;stroke-linejoin:round;stroke-miterlimit:10;" d="
				M488.529,294.158c-1.145-2.483-4.087-3.567-6.569-2.422c-2.483,1.145-3.567,4.087-2.422,6.57c1.145,2.483,4.087,3.567,6.57,2.422
				C488.59,299.582,489.675,296.641,488.529,294.158z"/>
			<path style="fill:none;stroke:#1D1D1B;stroke-width:2;stroke-linecap:round;stroke-linejoin:round;stroke-miterlimit:10;" d="
				M470.003,286.732c-2.87,3.591-5.741,7.183-8.611,10.774"/>
			<path style="fill:none;stroke:#1D1D1B;stroke-width:2;stroke-linecap:round;stroke-linejoin:round;stroke-miterlimit:10;" d="
				M457.149,284.377c0.146,4.609-0.032,8.513,0.114,13.122"/>
			<path style="fill:none;stroke:#1D1D1B;stroke-width:2;stroke-linecap:round;stroke-linejoin:round;stroke-miterlimit:10;" d="
				M444.195,290.733c3.203,2.64,6.16,5.578,8.82,8.764"/>
			<path style="fill:none;stroke:#1D1D1B;stroke-width:2;stroke-linecap:round;stroke-linejoin:round;stroke-miterlimit:10;" d="
				M463.558,301.448c5.121-1.143,10.065-3.073,14.605-5.703"/>
			<path style="fill:none;stroke:#1D1D1B;stroke-width:2;stroke-linecap:round;stroke-linejoin:round;stroke-miterlimit:10;" d="
				M462.951,304.478c4.354,1.833,8.708,3.667,13.061,5.501"/>
			<path style="fill:#FFFFFF;stroke:#1D1D1B;stroke-width:2;stroke-linecap:round;stroke-linejoin:round;stroke-miterlimit:10;" d="
				M483.366,310.857c-1.145-2.483-4.087-3.567-6.57-2.422c-2.483,1.145-3.567,4.087-2.422,6.57c1.145,2.483,4.087,3.567,6.569,2.422
				C483.427,316.281,484.512,313.34,483.366,310.857z"/>
		</g>
	</g>
	<g>
		<path style="fill:none;stroke:#1D1D1B;stroke-width:2;stroke-linecap:round;stroke-linejoin:round;stroke-miterlimit:10;" d="
			M33.786,353.472c-5.521,1.79-6.972,3.241-8.762,8.762c-1.79-5.521-3.241-6.972-8.762-8.762c5.521-1.79,6.972-3.241,8.762-8.762
			C26.813,350.232,28.264,351.682,33.786,353.472z"/>
		<path style="fill:none;stroke:#1D1D1B;stroke-width:2;stroke-linecap:round;stroke-linejoin:round;stroke-miterlimit:10;" d="
			M134.22,133.975c-5.521,1.79-6.972,3.241-8.762,8.762c-1.79-5.521-3.241-6.972-8.762-8.762c5.521-1.79,6.972-3.241,8.762-8.762
			C127.248,130.734,128.699,132.185,134.22,133.975z"/>
		<path style="fill:none;stroke:#1D1D1B;stroke-width:2;stroke-linecap:round;stroke-linejoin:round;stroke-miterlimit:10;" d="
			M239.242,116.022c-5.521,1.79-6.972,3.241-8.762,8.762c-1.79-5.521-3.241-6.972-8.762-8.762c5.521-1.79,6.972-3.241,8.762-8.762
			C232.269,112.782,233.72,114.233,239.242,116.022z"/>
		<path style="fill:none;stroke:#1D1D1B;stroke-width:2;stroke-linecap:round;stroke-linejoin:round;stroke-miterlimit:10;" d="
			M440.951,128.492c-5.521,1.79-6.972,3.241-8.762,8.762c-1.79-5.521-3.241-6.972-8.762-8.762c5.521-1.79,6.972-3.241,8.762-8.762
			C433.978,125.251,435.429,126.702,440.951,128.492z"/>
		<path style="fill:none;stroke:#1D1D1B;stroke-width:2;stroke-linecap:round;stroke-linejoin:round;stroke-miterlimit:10;" d="
			M473.631,38.505c-5.521,1.79-6.972,3.241-8.762,8.762c-1.79-5.521-3.241-6.972-8.762-8.762c5.521-1.79,6.972-3.241,8.762-8.762
			C466.659,35.264,468.11,36.715,473.631,38.505z"/>
		<path style="fill:none;stroke:#1D1D1B;stroke-width:2;stroke-linecap:round;stroke-linejoin:round;stroke-miterlimit:10;" d="
			M223.327,23.102c-5.521,1.79-6.972,3.241-8.762,8.762c-1.79-5.521-3.241-6.972-8.762-8.762c5.521-1.79,6.972-3.241,8.762-8.762
			C216.355,19.862,217.806,21.313,223.327,23.102z"/>
		<path style="fill:none;stroke:#1D1D1B;stroke-width:2;stroke-linecap:round;stroke-linejoin:round;stroke-miterlimit:10;" d="
			M38.187,137.254c-5.521,1.79-6.972,3.241-8.762,8.762c-1.79-5.521-3.241-6.972-8.762-8.762c5.521-1.79,6.972-3.241,8.762-8.762
			C31.215,134.013,32.666,135.464,38.187,137.254z"/>
		<path style="fill:none;stroke:#1D1D1B;stroke-width:2;stroke-linecap:round;stroke-linejoin:round;stroke-miterlimit:10;" d="
			M62.572,370.842c-3.235,1.049-4.085,1.899-5.134,5.134c-1.049-3.235-1.899-4.085-5.134-5.134c3.235-1.049,4.085-1.899,5.134-5.134
			C58.486,368.943,59.336,369.793,62.572,370.842z"/>
		<path style="fill:none;stroke:#1D1D1B;stroke-width:2;stroke-linecap:round;stroke-linejoin:round;stroke-miterlimit:10;" d="
			M116.259,178.209c-3.235,1.049-4.085,1.899-5.134,5.134c-1.049-3.235-1.899-4.085-5.134-5.134
			c3.235-1.049,4.085-1.899,5.134-5.134C112.174,176.31,113.024,177.161,116.259,178.209z"/>
		<path style="fill:none;stroke:#1D1D1B;stroke-width:2;stroke-linecap:round;stroke-linejoin:round;stroke-miterlimit:10;" d="
			M303.124,171.374c-3.235,1.049-4.085,1.899-5.134,5.134c-1.049-3.235-1.899-4.085-5.134-5.134
			c3.235-1.049,4.085-1.899,5.134-5.134C299.038,169.475,299.888,170.326,303.124,171.374z"/>
		<path style="fill:none;stroke:#1D1D1B;stroke-width:2;stroke-linecap:round;stroke-linejoin:round;stroke-miterlimit:10;" d="
			M314.527,151.253c-3.235,1.049-4.085,1.899-5.134,5.134c-1.049-3.235-1.899-4.085-5.134-5.134
			c3.235-1.049,4.085-1.899,5.134-5.134C310.442,149.354,311.292,150.204,314.527,151.253z"/>
		<path style="fill:none;stroke:#1D1D1B;stroke-width:2;stroke-linecap:round;stroke-linejoin:round;stroke-miterlimit:10;" d="
			M475.137,140.786c-3.235,1.049-4.086,1.899-5.134,5.134c-1.049-3.235-1.899-4.085-5.134-5.134
			c3.235-1.049,4.085-1.899,5.134-5.134C471.052,138.887,471.902,139.737,475.137,140.786z"/>
		<path style="fill:none;stroke:#1D1D1B;stroke-width:2;stroke-linecap:round;stroke-linejoin:round;stroke-miterlimit:10;" d="
			M490.343,336.514c-3.235,1.049-4.085,1.899-5.134,5.134c-1.049-3.235-1.899-4.086-5.134-5.134
			c3.235-1.049,4.085-1.899,5.134-5.134C486.257,334.615,487.108,335.465,490.343,336.514z"/>
		<path style="fill:none;stroke:#1D1D1B;stroke-width:2;stroke-linecap:round;stroke-linejoin:round;stroke-miterlimit:10;" d="
			M481.146,261.948c-3.235,1.049-4.085,1.899-5.134,5.134c-1.049-3.235-1.899-4.086-5.134-5.134
			c3.235-1.049,4.085-1.899,5.134-5.134C477.061,260.049,477.911,260.899,481.146,261.948z"/>
		<path style="fill:none;stroke:#1D1D1B;stroke-width:2;stroke-linecap:round;stroke-linejoin:round;stroke-miterlimit:10;" d="
			M436.548,14.34c-3.235,1.049-4.085,1.899-5.134,5.134c-1.049-3.235-1.899-4.085-5.134-5.134c3.235-1.049,4.086-1.899,5.134-5.134
			C432.463,12.441,433.313,13.292,436.548,14.34z"/>
		<path style="fill:none;stroke:#1D1D1B;stroke-width:2;stroke-linecap:round;stroke-linejoin:round;stroke-miterlimit:10;" d="
			M314.527,24.609c-3.235,1.049-4.085,1.899-5.134,5.134c-1.049-3.235-1.899-4.085-5.134-5.134c3.235-1.049,4.085-1.899,5.134-5.134
			C310.442,22.71,311.292,23.56,314.527,24.609z"/>
		<path style="fill:none;stroke:#1D1D1B;stroke-width:2;stroke-linecap:round;stroke-linejoin:round;stroke-miterlimit:10;" d="
			M32.512,229.508c-3.235,1.049-4.085,1.899-5.134,5.134c-1.049-3.235-1.899-4.085-5.134-5.134c3.235-1.049,4.086-1.899,5.134-5.134
			C28.427,227.609,29.277,228.459,32.512,229.508z"/>
		<path style="fill:none;stroke:#1D1D1B;stroke-width:2;stroke-linecap:round;stroke-linejoin:round;stroke-miterlimit:10;" d="
			M90.095,100.126c-3.235,1.049-4.085,1.899-5.134,5.134c-1.049-3.235-1.899-4.086-5.134-5.134c3.235-1.049,4.085-1.899,5.134-5.134
			C86.01,98.227,86.86,99.077,90.095,100.126z"/>
		<path style="fill:none;stroke:#1D1D1B;stroke-width:2;stroke-linecap:round;stroke-linejoin:round;stroke-miterlimit:10;" d="
			M263.804,62.837c-3.235,1.049-4.085,1.899-5.134,5.134c-1.049-3.235-1.899-4.085-5.134-5.134c3.235-1.049,4.085-1.899,5.134-5.134
			C259.719,60.938,260.569,61.789,263.804,62.837z"/>
	</g>
	<g>
		<path style="fill:none;stroke:#1D1D1B;stroke-width:2;stroke-linecap:round;stroke-linejoin:round;stroke-miterlimit:10;" d="
			M495.321,499.604c-13.219-15.619-42.306-32.071-51.126-61.87"/>
		<path style="fill:none;stroke:#1D1D1B;stroke-width:2;stroke-linecap:round;stroke-linejoin:round;stroke-miterlimit:10;" d="
			M477.182,500.83c-31.79-15.298-67.319-22.754-102.577-21.526"/>
		<path style="fill:none;stroke:#1D1D1B;stroke-width:2;stroke-linecap:round;stroke-linejoin:round;stroke-miterlimit:10;" d="
			M424.237,470.69c-21.343-4.561-43.664-0.844-65.206,2.88c6.001,3.572,10.305,9.009,15.78,13.211
			c13.479,10.343,32.503,12.194,50.202,11.954c7.647-0.104,26.537-1.26,23.919-11.96C446.69,477.615,433.123,472.589,424.237,470.69
			z"/>
		<path style="fill:none;stroke:#1D1D1B;stroke-width:2;stroke-linecap:round;stroke-linejoin:round;stroke-miterlimit:10;" d="
			M466.866,452.249c-4.763-4.284-10.301-7.739-14.489-12.587c-3.721-4.308-6.427-9.746-11.344-12.614
			c-1.298,4.234-2.601,8.487-3.261,12.866c-2.005,13.311,2.374,27.44,11.555,37.285c5.477,5.873,26.421,21.196,32.546,9.387
			C487.585,475.574,474.389,459.015,466.866,452.249z"/>
		<path style="fill:none;stroke:#1D1D1B;stroke-width:2;stroke-linecap:round;stroke-linejoin:round;stroke-miterlimit:10;" d="
			M495.99,498.563c-3.477-12.72-6.969-25.526-8.09-38.665c-1.121-13.139,5.261-27.449,11.116-39.265"/>
		<path style="fill:none;stroke:#1D1D1B;stroke-width:2;stroke-linecap:round;stroke-linejoin:round;stroke-miterlimit:10;" d="
			M498.96,408.849c-12.007,6.73-20.366,19.578-21.652,33.283c-0.457,4.868,0.117,10.255,3.524,13.762
			c2.912,2.999,7.69,4.006,11.565,2.44c3.875-1.567,6.61-5.612,6.62-9.791"/>
	</g>
</g>
</svg>
